<svg xmlns="http://www.w3.org/2000/svg" xmlns:xlink="http://www.w3.org/1999/xlink" width="2000" height="2000" viewBox="0 0 2000 2000" fill="none"><defs><rect id="path_0" x="0" y="0" width="2000" height="2000" /></defs><g opacity="1" transform="translate(0 0)  rotate(0 1000 1000)"><mask id="bg-mask-0" fill="white"><use xlink:href="#path_0"></use></mask><g mask="url(#bg-mask-0)" ><g opacity="1" transform="translate(-250 -250)  rotate(45 1250 1250)"><g opacity="1" transform="translate(821.0295291300878 0)  rotate(0 428.9704708699122 1250)"><path id="2" fill-rule="evenodd" style="fill:#B3AC84" transform="translate(0 0)  rotate(0 428.9704708699122 607.5418994413408)" opacity="1" d="M857.94 707.78C857.94 709.24 857.94 710.7 857.93 712.15C615.52 746.12 428.97 954.33 428.97 1206.11C428.97 954.33 242.43 746.12 0.01 712.15C0 710.7 0 709.24 0 707.78C0 400.19 174.01 133.23 428.97 0C683.93 133.23 857.94 400.19 857.94 707.78ZM428.97 1206.11C428.97 1209.11 428.94 1212.1 428.89 1215.08L429.05 1215.08C429 1212.1 428.97 1209.11 428.97 1206.11Z" /><path id="1" fill-rule="evenodd" style="fill:#BC8F69" transform="translate(0 1284.9162011173185)  rotate(180 428.9704708699122 607.5418994413408)" opacity="1" d="M857.94 707.78C857.94 709.24 857.94 710.7 857.93 712.15C615.52 746.12 428.97 954.33 428.97 1206.11C428.97 954.33 242.43 746.12 0.01 712.15C0 710.7 0 709.24 0 707.78C0 400.19 174.01 133.23 428.97 0C683.93 133.23 857.94 400.19 857.94 707.78ZM428.97 1206.11C428.97 1209.11 429 1212.1 429.05 1215.08L428.89 1215.08C428.94 1212.1 428.97 1209.11 428.97 1206.11Z" /></g><g opacity="1" transform="translate(821.0295291300878 0)  rotate(90 428.9704708699122 1250)"><path id="2" fill-rule="evenodd" style="fill:#7A7254" transform="translate(0 0)  rotate(0 428.9704708699122 607.5418994413408)" opacity="1" d="M428.97 1206.11C428.97 954.33 242.43 746.12 0.01 712.15C0 710.7 0 709.24 0 707.78C0 400.19 174.01 133.23 428.97 0C683.93 133.23 857.94 400.19 857.94 707.78C857.94 709.24 857.94 710.7 857.93 712.15C615.52 746.12 428.97 954.33 428.97 1206.11ZM428.97 1206.11C428.97 1209.11 428.94 1212.1 428.89 1215.08L429.05 1215.08C429 1212.1 428.97 1209.11 428.97 1206.11Z" /><path id="1" fill-rule="evenodd" style="fill:#F8A562" transform="translate(0 1284.9162011173185)  rotate(180 428.9704708699122 607.5418994413408)" opacity="1" d="M857.94 707.78C857.94 709.24 857.94 710.7 857.93 712.15C615.52 746.12 428.97 954.33 428.97 1206.11C428.97 954.33 242.43 746.12 0.01 712.15C0 710.7 0 709.24 0 707.78C0 400.19 174.01 133.23 428.97 0C683.93 133.23 857.94 400.19 857.94 707.78ZM428.97 1206.11C428.97 1209.11 429 1212.1 429.05 1215.08L428.89 1215.08C428.94 1212.1 428.97 1209.11 428.97 1206.11Z" /></g></g><path id="2" fill-rule="evenodd" style="fill:#FFFFFF" transform="translate(975 975)  rotate(0 25 25)" opacity="1" d="M25,0C11.19,0 0,11.19 0,25C0,38.81 11.19,50 25,50C38.81,50 50,38.81 50,25C50,11.19 38.81,0 25,0Z " /><path  id="2" style="stroke:#CCCCCC; stroke-width:10; stroke-opacity:1; stroke-dasharray:0 0" transform="translate(975 975)  rotate(0 25 25)" d="M25,0C11.19,0 0,11.19 0,25C0,38.81 11.19,50 25,50C38.81,50 50,38.81 50,25C50,11.19 38.81,0 25,0Z " /><path id="1" fill-rule="evenodd" style="fill:#FFFFFF" transform="translate(350 350)  rotate(0 650 650)" opacity="1" d="M748.48 295.45L650 590.91L551.52 295.45L650 0L748.48 295.45ZM295.45 551.52L590.91 650L295.45 748.48L0 650L295.45 551.52ZM1004.55 551.52L709.09 650L1004.55 748.48L1300 650L1004.55 551.52ZM650 709.09L748.48 1004.55L650 1300L551.52 1004.55L650 709.09Z" /><path  id="1" style="stroke:#CCCCCC; stroke-width:10; stroke-opacity:1; stroke-dasharray:0 0" transform="translate(350 350)  rotate(0 650 650)" d="M650,590.91L748.48,295.45L650,0L551.52,295.45L650,590.91Z M748.48,1004.55L650,709.09L551.52,1004.55L650,1300L748.48,1004.55Z M1004.55,551.52L709.09,650L1004.55,748.48L1300,650L1004.55,551.52Z M590.91,650L295.45,551.52L0,650L295.45,748.48L590.91,650Z " /></g></g></svg>